# xmcd
#
# Track frame offsets: 
#        150
#        18625
#        47222
#        70360
#        97032
#        113300
#        137092
#        152730
#        170320
#        192792
#        208952
#        223420
#        246790
#        261415
#        278635
#        304270
#        318202
#        335115
#
# Disc length: 4645 seconds
#
# Revision: 18
# Processed by: cddbd v1.5.2PL0 Copyright (c) Steve Scherf et al.
# Submitted via: ExactAudioCopyFreeDBPlugin 1.0
#
DISCID=16122312
DTITLE=Aerosmith - Ultimate Aerosmith Hits
DYEAR=2002
DGENRE=Hard Rock
TTITLE0=The Other Side
TTITLE1=Livin' On The Edge
TTITLE2=Cryin'
TTITLE3=Amazing
TTITLE4=Deuces Are Wild
TTITLE5=Crazy
TTITLE6=Falling In Love(Is Hard On The Knees)
TTITLE7=Pink(The South Beach Mix)
TTITLE8=I Don't Want To Miss A Thing
TTITLE9=Jaded
TTITLE10=Just Push Play(Radio Remix)
TTITLE11=Walk This Way(Feat. Run Dmc)
TTITLE12=Girls Of Summer
TTITLE13=Lay It Down
TTITLE14=Train Kept A Rollin'
TTITLE15=Toys In The Attic
TTITLE16=Come Together
TTITLE17=Theme From Spider Man
EXTD=YEAR: 2002
EXTT0=
EXTT1=
EXTT2=
EXTT3=
EXTT4=
EXTT5=
EXTT6=
EXTT7=
EXTT8=
EXTT9=
EXTT10=
EXTT11=
EXTT12=
EXTT13=
EXTT14=
EXTT15=
EXTT16=
EXTT17=
PLAYORDER=
